<svg width="154" height="48" viewBox="0 0 154 48" fill="none" xmlns="http://www.w3.org/2000/svg">
<g clip-path="url(#clip0_1_69)">
<path d="M149 48H5.0002C2.3602 48 0.200195 45.84 0.200195 43.2V4.8C0.200195 2.16 2.3602 0 5.0002 0H149C151.64 0 153.8 2.16 153.8 4.8V43.2C153.8 45.84 151.64 48 149 48Z" fill="black"/>
<path fill-rule="evenodd" clip-rule="evenodd" d="M11.96 23.5196V10.9196C11.96 10.1996 12.56 9.59961 13.16 9.59961C13.76 9.59961 14 9.71961 14.36 9.95961L37.52 22.6796C38 22.9196 38.24 23.2796 38.24 23.6396C38.24 23.9996 38 24.3596 37.52 24.5996L14.36 37.3196C14.12 37.4396 13.76 37.6796 13.16 37.6796C12.56 37.6796 11.96 37.0796 11.96 36.3596V23.5196Z" fill="url(#paint0_linear_1_69)"/>
<path fill-rule="evenodd" clip-rule="evenodd" d="M26.9599 23.6396L12.9199 9.59961C13.0399 9.59961 13.0399 9.59961 13.1599 9.59961C13.7599 9.59961 13.9999 9.71961 14.3599 9.95961L31.3999 19.3196L26.9599 23.6396Z" fill="url(#paint1_linear_1_69)"/>
<path fill-rule="evenodd" clip-rule="evenodd" d="M31.2799 27.8401L26.96 23.5201L31.4 19.0801L37.52 22.4401C38 22.6801 38.24 23.0401 38.24 23.4001C38.24 23.7601 38 24.1201 37.52 24.3601L31.2799 27.8401Z" fill="url(#paint2_linear_1_69)"/>
<path fill-rule="evenodd" clip-rule="evenodd" d="M13.04 37.4395L26.96 23.5195L31.28 27.8395L14.36 37.0795C14 37.3195 13.76 37.4395 13.04 37.4395C13.16 37.4395 13.16 37.4395 13.04 37.4395Z" fill="url(#paint3_linear_1_69)"/>
<path fill-rule="evenodd" clip-rule="evenodd" d="M85.5201 40.6796C84.92 40.1996 84.44 39.3596 84.2 38.8796L86.12 38.0396C86.24 38.2796 86.48 38.6396 86.7201 38.9996C87.2001 39.4796 87.9201 39.9596 88.6401 39.9596C89.3601 39.9596 90.2 39.5996 90.68 38.9996C91.04 38.3996 91.28 37.7996 91.28 36.9596V36.2396C89.84 38.0396 86.84 37.7996 85.16 35.8796C83.36 33.9596 83.36 30.7196 85.16 28.7996C86.96 26.9996 89.6 26.7596 91.16 28.4396V27.5996H93.2V36.5996C93.2 38.8796 92.36 40.1996 91.28 41.0396C90.56 41.6396 89.48 41.8796 88.5201 41.8796C87.44 41.7596 86.3601 41.3996 85.5201 40.6796ZM135.8 41.1596L137.84 36.3596L134.24 28.0796H136.28L138.8 33.9596L141.32 28.0796H143.36L137.84 41.1596H135.8ZM126.08 36.5996C125.48 35.9996 125.24 35.1596 125.24 34.3196C125.24 33.5996 125.48 32.8796 125.96 32.3996C126.8 31.5596 128 31.1996 129.32 31.1996C130.16 31.1996 130.88 31.3196 131.48 31.6796C131.48 30.2396 130.28 29.6396 129.32 29.6396C128.48 29.6396 127.64 30.1196 127.28 30.9596L125.48 30.2396C125.84 29.3996 126.8 27.8396 129.2 27.8396C130.4 27.8396 131.6 28.1996 132.32 29.0396C133.04 29.8796 133.28 30.8396 133.28 32.1596V37.1996H131.24V36.3596C131 36.7196 130.52 36.9596 130.16 37.1996C129.68 37.4396 129.08 37.5596 128.48 37.5596C127.76 37.4396 126.68 37.1996 126.08 36.5996ZM62.12 32.2796C62.12 29.8796 63.92 27.2396 67.16 27.2396C70.28 27.2396 72.2 29.8796 72.2 32.2796C72.2 34.6796 70.4 37.3196 67.16 37.3196C63.92 37.3196 62.12 34.6796 62.12 32.2796ZM72.92 32.2796C72.92 29.8796 74.72 27.2396 77.96 27.2396C81.08 27.2396 83 29.8796 83 32.2796C83 34.6796 81.2 37.3196 77.96 37.3196C74.84 37.3196 72.92 34.6796 72.92 32.2796ZM48.56 34.9196C45.56 31.9196 45.68 26.9996 48.68 23.8796C50.24 22.3196 52.16 21.5996 54.2 21.5996C56.12 21.5996 58.04 22.3196 59.48 23.7596L58.04 25.3196C55.88 23.1596 52.4 23.2796 50.36 25.4396C48.2 27.7196 48.2 31.1996 50.36 33.4796C52.52 35.7596 56.12 35.8796 58.28 33.5996C59 32.8796 59.24 31.9196 59.36 30.9596H54.32V28.7996H61.4C61.52 29.2796 61.52 29.8796 61.52 30.4796C61.52 32.2796 60.8 34.0796 59.6 35.2796C58.28 36.5996 56.36 37.3196 54.44 37.3196C52.28 37.1996 50.12 36.4796 48.56 34.9196ZM99.32 35.7596C97.5201 33.8396 97.5201 30.5996 99.32 28.5596C101.12 26.6396 104.12 26.6396 105.8 28.5596C106.4 29.1596 106.76 29.9996 107.12 30.8396L100.52 33.5996C100.88 34.4396 101.72 35.1596 102.92 35.1596C104 35.1596 104.72 34.7996 105.44 33.7196L107.24 34.9196C107 35.1596 106.76 35.3996 106.64 35.6396C104.6 37.6796 101.12 37.6796 99.32 35.7596ZM111.8 37.1996V23.8796H116.12C118.64 23.8796 120.68 25.6796 120.68 27.8396C120.68 29.9996 118.88 31.7996 116.6 31.7996H113.96V37.0796H111.8V37.1996ZM121.88 37.1996V23.8796H123.92V37.1996H121.88ZM94.76 36.9596V22.0796H96.92V36.9596H94.76ZM131.36 33.2396C130.88 32.8796 130.16 32.7596 129.44 32.7596C128 32.7596 127.16 33.4796 127.16 34.3196C127.16 35.1596 128 35.6396 128.84 35.6396C130.04 35.6396 131.36 34.6796 131.36 33.2396ZM69.92 32.2796C69.92 30.8396 68.96 29.2796 67.16 29.2796C65.36 29.2796 64.4 30.8396 64.4 32.2796C64.4 33.7196 65.36 35.2796 67.16 35.2796C68.84 35.2796 69.92 33.7196 69.92 32.2796ZM80.72 32.2796C80.72 30.8396 79.76 29.2796 77.96 29.2796C76.16 29.2796 75.2 30.8396 75.2 32.2796C75.2 33.7196 76.16 35.2796 77.96 35.2796C79.76 35.2796 80.72 33.7196 80.72 32.2796ZM91.4 33.1196C91.4 32.9996 91.4 32.8796 91.5201 32.7596C91.5201 32.6396 91.5201 32.3996 91.5201 32.2796C91.5201 32.1596 91.5201 31.9196 91.5201 31.7996V31.6796C91.5201 31.5596 91.4 31.3196 91.4 31.1996C91.04 29.9996 89.96 29.1596 88.88 29.1596C87.44 29.1596 86.2401 30.5996 86.2401 32.1596C86.2401 33.8396 87.44 35.1596 89 35.1596C89.96 35.2796 90.92 34.4396 91.4 33.1196ZM100.16 32.0396L104.6 30.1196C104.12 29.2796 103.4 29.0396 102.8 29.0396C101 29.1596 99.92 31.0796 100.16 32.0396ZM118.52 27.9596C118.52 26.7596 117.56 25.9196 116.24 25.9196H113.84V30.1196H116.36C117.56 30.1196 118.52 29.1596 118.52 27.9596Z" fill="white"/>
<path fill-rule="evenodd" clip-rule="evenodd" d="M137.36 38.7601H137.24V38.6401H137.36H137.24V38.7601H137.36Z" fill="white"/>
<path fill-rule="evenodd" clip-rule="evenodd" d="M137.6 38.7601C137.6 38.6401 137.6 38.6401 137.6 38.7601C137.48 38.6401 137.48 38.6401 137.6 38.7601C137.48 38.7601 137.48 38.7601 137.6 38.7601ZM137.6 38.6401C137.6 38.7601 137.6 38.7601 137.6 38.6401C137.48 38.7601 137.6 38.7601 137.6 38.6401Z" fill="white"/>
<path fill-rule="evenodd" clip-rule="evenodd" d="M137.72 38.6401H137.6H137.72V38.7601V38.6401Z" fill="white"/>
<path d="M46.8804 12.1201C46.8804 9.96014 48.4404 8.64014 50.3604 8.64014C51.6804 8.64014 52.5204 9.24014 53.1204 10.0801L52.1604 10.6801C51.8004 10.2001 51.2004 9.84014 50.3604 9.84014C49.0404 9.84014 48.0804 10.8001 48.0804 12.2401C48.0804 13.6801 49.0404 14.6401 50.3604 14.6401C51.0804 14.6401 51.6804 14.2801 51.9204 14.0401V12.9601H50.0004V11.8801H53.2404V14.4001C52.6404 15.1201 51.6804 15.6001 50.4804 15.6001C48.4404 15.6001 46.8804 14.1601 46.8804 12.1201Z" fill="white"/>
<path d="M54.6802 15.4798V8.75977H59.2402V9.83977H55.7602V11.5198H59.1202V12.5998H55.7602V14.5198H59.2402V15.5998L54.6802 15.4798Z" fill="white"/>
<path d="M62.6001 15.4798V9.83977H60.5601V8.75977H65.8401V9.83977H63.8001V15.4798H62.6001Z" fill="white"/>
<path d="M69.9199 15.4798V8.75977H71.1199V15.4798H69.9199Z" fill="white"/>
<path d="M74.3603 15.4798V9.83977H72.3203V8.75977H77.6003V9.83977H75.5603V15.4798H74.3603Z" fill="white"/>
<path d="M81.4399 12.1201C81.4399 10.0801 82.88 8.64014 84.92 8.64014C86.96 8.64014 88.3999 10.0801 88.3999 12.1201C88.3999 14.1601 86.96 15.6001 84.92 15.6001C82.88 15.6001 81.4399 14.0401 81.4399 12.1201ZM87.0799 12.1201C87.0799 10.6801 86.2399 9.72014 84.7999 9.72014C83.4799 9.72014 82.52 10.8001 82.52 12.1201C82.52 13.5601 83.3599 14.5201 84.7999 14.5201C86.2399 14.5201 87.0799 13.4401 87.0799 12.1201Z" fill="white"/>
<path d="M94.4002 15.4798L90.9202 10.6798V15.4798H89.7202V8.75977H90.9202L94.4002 13.4398V8.75977H95.6002V15.4798H94.4002Z" fill="white"/>
</g>
<defs>
<linearGradient id="paint0_linear_1_69" x1="19.7208" y1="7.88793" x2="26.4387" y2="35.477" gradientUnits="userSpaceOnUse">
<stop stop-color="#006884"/>
<stop offset="1" stop-color="#8AD1D0"/>
</linearGradient>
<linearGradient id="paint1_linear_1_69" x1="11.5288" y1="11.8122" x2="29.836" y2="21.7092" gradientUnits="userSpaceOnUse">
<stop stop-color="#24BBB6"/>
<stop offset="1" stop-color="#DBE692"/>
</linearGradient>
<linearGradient id="paint2_linear_1_69" x1="32.5932" y1="28.3442" x2="32.5932" y2="18.8061" gradientUnits="userSpaceOnUse">
<stop stop-color="#FCC072"/>
<stop offset="1" stop-color="#F58A5B"/>
</linearGradient>
<linearGradient id="paint3_linear_1_69" x1="15.0737" y1="39.9225" x2="29.5357" y2="25.2042" gradientUnits="userSpaceOnUse">
<stop stop-color="#712B8F"/>
<stop offset="1" stop-color="#EA1D27"/>
</linearGradient>
<clipPath id="clip0_1_69">
<rect width="154" height="48" fill="white"/>
</clipPath>
</defs>
</svg>
