<svg width="27" height="27" viewBox="0 0 27 27" fill="none" xmlns="http://www.w3.org/2000/svg">
<path d="M13.5003 4.96087H17.6924C20.4871 5.11614 21.8845 6.35824 22.0398 9.30824V17.6925C21.8845 20.4872 20.6424 21.8846 17.6924 22.0398H9.30818C6.51344 21.8846 5.11608 20.4872 4.96081 17.6925V13.5003V9.30824C5.11608 6.51351 6.35818 5.11614 9.30818 4.96087H13.5003ZM13.5003 3.09772H9.15292C5.4266 3.25298 3.25292 5.42667 3.09766 9.15298V17.8477C3.25292 21.574 5.4266 23.7477 9.15292 23.903H17.8477C21.574 23.7477 23.7477 21.574 23.9029 17.8477V13.5003V9.15298C23.7477 5.42667 21.574 3.25298 17.8477 3.09772H13.5003ZM13.5003 8.06614C10.5503 8.06614 8.06608 10.3951 8.06608 13.5003C8.06608 16.4503 10.395 18.9346 13.5003 18.9346C16.6055 18.9346 18.9345 16.6056 18.9345 13.5003C18.9345 10.5503 16.4503 8.06614 13.5003 8.06614ZM13.5003 16.9161C11.6371 16.9161 10.0845 15.3635 10.0845 13.5003C10.0845 11.6372 11.6371 10.0846 13.5003 10.0846C15.3634 10.0846 16.9161 11.6372 16.9161 13.5003C16.9161 15.3635 15.3634 16.9161 13.5003 16.9161ZM19.0898 6.66877C18.4687 6.66877 17.8477 7.28982 17.8477 7.91087C17.8477 8.53193 18.4687 9.15298 19.0898 9.15298C19.7108 9.15298 20.3319 8.53193 20.3319 7.91087C20.3319 7.28982 19.7108 6.66877 19.0898 6.66877Z" fill="white"/>
</svg>
