<svg width="23" height="23" viewBox="0 0 23 23" fill="none" xmlns="http://www.w3.org/2000/svg">
<path d="M11.5002 4.22593H15.0712C17.4519 4.35819 18.6423 5.41628 18.7745 7.92924V15.0713C18.6423 17.452 17.5842 18.6424 15.0712 18.7747H7.92912C5.54842 18.6424 4.35807 17.452 4.22581 15.0713V11.5003V7.92924C4.35807 5.54854 5.41616 4.35819 7.92912 4.22593H11.5002ZM11.5002 2.63879H7.79686C4.62259 2.77106 2.77093 4.62271 2.63867 7.79698V15.2036C2.77093 18.3779 4.62259 20.2295 7.79686 20.3618H15.2035C18.3778 20.2295 20.2294 18.3779 20.3617 15.2036V11.5003V7.79698C20.2294 4.62271 18.3778 2.77106 15.2035 2.63879H11.5002ZM11.5002 6.87115C8.98721 6.87115 6.87103 8.85507 6.87103 11.5003C6.87103 14.0133 8.85495 16.1294 11.5002 16.1294C14.1454 16.1294 16.1293 14.1455 16.1293 11.5003C16.1293 8.98733 14.0131 6.87115 11.5002 6.87115ZM11.5002 14.41C9.91304 14.41 8.59043 13.0874 8.59043 11.5003C8.59043 9.91316 9.91304 8.59055 11.5002 8.59055C13.0873 8.59055 14.4099 9.91316 14.4099 11.5003C14.4099 13.0874 13.0873 14.41 11.5002 14.41ZM16.2616 5.6808C15.7325 5.6808 15.2035 6.20985 15.2035 6.73889C15.2035 7.26794 15.7325 7.79698 16.2616 7.79698C16.7906 7.79698 17.3197 7.26794 17.3197 6.73889C17.3197 6.20985 16.7906 5.6808 16.2616 5.6808Z" fill="white"/>
</svg>
