<svg width="23" height="23" viewBox="0 0 23 23" fill="none" xmlns="http://www.w3.org/2000/svg">
<path d="M17.716 2.90289H5.15121C3.8286 2.90289 2.77051 3.96098 2.77051 5.28359V17.8484C2.77051 19.171 3.8286 20.2291 5.15121 20.2291H11.3675V14.1451H9.78035C9.51583 14.1451 9.38357 14.0128 9.38357 13.7483V11.7644C9.38357 11.4999 9.51583 11.3676 9.78035 11.3676H11.3675V9.51595C11.3675 7.26751 12.6901 6.07716 14.674 6.07716H16.2612C16.5257 6.07716 16.6579 6.20942 16.6579 6.47394V8.19334C16.6579 8.45786 16.5257 8.59012 16.2612 8.59012H15.2031C14.145 8.59012 13.8804 9.11917 13.8804 9.91274V11.6321H16.2612C16.5257 11.6321 16.6579 11.7644 16.6579 12.0289L16.3934 14.0128C16.3934 14.1451 16.2611 14.4096 15.9966 14.4096H14.145V20.4936H17.8483C19.1709 20.4936 20.229 19.4355 20.229 18.1129V5.54812C20.0967 3.96098 19.0386 2.90289 17.716 2.90289Z" fill="white"/>
</svg>
