<svg width="27" height="27" viewBox="0 0 27 27" fill="none" xmlns="http://www.w3.org/2000/svg">
<path d="M20.7972 3.40771H6.04718C4.49455 3.40771 3.25244 4.64982 3.25244 6.20245V20.9524C3.25244 22.5051 4.49455 23.7472 6.04718 23.7472H13.3445V16.6051H11.4814C11.1709 16.6051 11.0156 16.4498 11.0156 16.1393V13.8103C11.0156 13.4998 11.1709 13.3446 11.4814 13.3446H13.3445V11.1709C13.3445 8.5314 14.8972 7.13403 17.2261 7.13403H19.0893C19.3998 7.13403 19.5551 7.28929 19.5551 7.59982V9.61824C19.5551 9.92877 19.3998 10.084 19.0893 10.084H17.8472C16.6051 10.084 16.2945 10.7051 16.2945 11.6367V13.6551H19.0893C19.3998 13.6551 19.5551 13.8103 19.5551 14.1209L19.2445 16.4498C19.2445 16.6051 19.0893 16.9156 18.7788 16.9156H16.6051V24.0577H20.9524C22.5051 24.0577 23.7472 22.8156 23.7472 21.263V6.51298C23.5919 4.64982 22.3498 3.40771 20.7972 3.40771Z" fill="white"/>
</svg>
