<svg width="669" height="183" viewBox="0 0 669 183" fill="none" xmlns="http://www.w3.org/2000/svg">
<g clip-path="url(#clip0_2026_1216)">
<path d="M51.372 180.21L0.557617 2.6194H41.5733L70.9694 126.013H72.4435L104.875 2.6194H139.994L172.338 126.274H173.899L203.295 2.6194H244.311L193.496 180.21H156.903L123.085 64.0996H121.697L87.9653 180.21H51.372Z" fill="white"/>
<path d="M301.954 2.6194V180.21H264.407V2.6194H301.954Z" fill="white"/>
<path d="M364.93 2.6194L407.853 137.546H409.501L452.511 2.6194H494.134L432.914 180.21H384.527L323.22 2.6194H364.93Z" fill="white"/>
<path d="M668.689 91.4145C668.689 110.781 665.018 127.256 657.676 140.841C650.392 154.427 640.449 164.803 627.847 171.972C615.302 179.082 601.197 182.638 585.53 182.638C569.748 182.638 555.585 179.053 543.04 171.885C530.496 164.717 520.581 154.34 513.297 140.755C506.013 127.17 502.372 110.723 502.372 91.4145C502.372 72.0484 506.013 55.5727 513.297 41.9875C520.581 28.4024 530.496 18.0545 543.04 10.9439C555.585 3.77558 569.748 0.191406 585.53 0.191406C601.197 0.191406 615.302 3.77558 627.847 10.9439C640.449 18.0545 650.392 28.4024 657.676 41.9875C665.018 55.5727 668.689 72.0484 668.689 91.4145ZM630.622 91.4145C630.622 78.8699 628.743 68.2908 624.985 59.6772C621.285 51.0636 616.054 44.5312 609.29 40.0798C602.526 35.6285 594.606 33.4029 585.53 33.4029C576.454 33.4029 568.534 35.6285 561.771 40.0798C555.007 44.5312 549.746 51.0636 545.989 59.6772C542.289 68.2908 540.439 78.8699 540.439 91.4145C540.439 103.959 542.289 114.538 545.989 123.152C549.746 131.765 555.007 138.298 561.771 142.749C568.534 147.2 576.454 149.426 585.53 149.426C594.606 149.426 602.526 147.2 609.29 142.749C616.054 138.298 621.285 131.765 624.985 123.152C628.743 114.538 630.622 103.959 630.622 91.4145Z" fill="white"/>
</g>
<defs>
<clipPath id="clip0_2026_1216">
<rect width="669" height="183" fill="white"/>
</clipPath>
</defs>
</svg>
