<svg width="80" height="22" viewBox="0 0 80 22" fill="none" xmlns="http://www.w3.org/2000/svg">
<path d="M6.04512 21.4158L0 0.288846H4.87943L8.37652 14.9684H8.55189L12.41 0.288846H16.588L20.4358 14.9993H20.6215L24.1186 0.288846H28.998L22.9529 21.4158H18.5996L14.5764 7.60283H14.4113L10.3984 21.4158H6.04512Z" fill="white"/>
<path d="M35.8555 0.288846V21.4158H31.3887V0.288846H35.8555Z" fill="white"/>
<path d="M43.3475 0.288846L48.4538 16.3404H48.6498L53.7665 0.288846H58.7182L51.4351 21.4158H45.6788L38.3855 0.288846H43.3475Z" fill="white"/>
<path d="M79.4841 10.8523C79.4841 13.1562 79.0474 15.1162 78.174 16.7324C77.3074 18.3486 76.1245 19.583 74.6253 20.4358C73.1329 21.2817 71.4549 21.7047 69.5911 21.7047C67.7136 21.7047 66.0287 21.2783 64.5363 20.4255C63.044 19.5727 61.8645 18.3382 60.998 16.7221C60.1314 15.1059 59.6982 13.1493 59.6982 10.8523C59.6982 8.54845 60.1314 6.58843 60.998 4.97227C61.8645 3.35611 63.044 2.12508 64.5363 1.27917C66.0287 0.426391 67.7136 0 69.5911 0C71.4549 0 73.1329 0.426391 74.6253 1.27917C76.1245 2.12508 77.3074 3.35611 78.174 4.97227C79.0474 6.58843 79.4841 8.54845 79.4841 10.8523ZM74.9554 10.8523C74.9554 9.35997 74.7319 8.10143 74.2849 7.07671C73.8447 6.052 73.2223 5.27487 72.4177 4.74532C71.613 4.21577 70.6709 3.95099 69.5911 3.95099C68.5114 3.95099 67.5692 4.21577 66.7646 4.74532C65.9599 5.27487 65.3341 6.052 64.8871 7.07671C64.4469 8.10143 64.2269 9.35997 64.2269 10.8523C64.2269 12.3447 64.4469 13.6032 64.8871 14.628C65.3341 15.6527 65.9599 16.4298 66.7646 16.9594C67.5692 17.4889 68.5114 17.7537 69.5911 17.7537C70.6709 17.7537 71.613 17.4889 72.4177 16.9594C73.2223 16.4298 73.8447 15.6527 74.2849 14.628C74.7319 13.6032 74.9554 12.3447 74.9554 10.8523Z" fill="white"/>
</svg>
