<svg width="136" height="22" viewBox="0 0 136 22" fill="none" xmlns="http://www.w3.org/2000/svg">
<path d="M5.5183 18.8571L0.722168 2.09524H4.59345L7.368 13.7418H7.50714L10.5682 2.09524H13.8829L16.9357 13.7664H17.083L19.8576 2.09524H23.7289L18.9327 18.8571H15.4789L12.2869 7.89807H12.1559L8.97217 18.8571H5.5183Z" fill="white"/>
<path d="M29.1695 2.09524V18.8571H25.6256V2.09524H29.1695Z" fill="white"/>
<path d="M35.1135 2.09524L39.1649 14.8304H39.3204L43.3799 2.09524H47.3085L41.5302 18.8571H36.9632L31.1768 2.09524H35.1135Z" fill="white"/>
<path d="M63.7839 10.4762C63.7839 12.3041 63.4375 13.8591 62.7445 15.1414C62.057 16.4236 61.1185 17.403 59.929 18.0796C58.745 18.7507 57.4136 19.0863 55.935 19.0863C54.4454 19.0863 53.1086 18.748 51.9246 18.0714C50.7405 17.3948 49.8048 16.4154 49.1173 15.1332C48.4298 13.8509 48.086 12.2986 48.086 10.4762C48.086 8.64831 48.4298 7.09325 49.1173 5.81101C49.8048 4.52877 50.7405 3.55208 51.9246 2.88095C53.1086 2.20436 54.4454 1.86607 55.935 1.86607C57.4136 1.86607 58.745 2.20436 59.929 2.88095C61.1185 3.55208 62.057 4.52877 62.7445 5.81101C63.4375 7.09325 63.7839 8.64831 63.7839 10.4762ZM60.1909 10.4762C60.1909 9.29216 60.0136 8.29365 59.6589 7.48065C59.3097 6.66766 58.8159 6.05109 58.1775 5.63095C57.5391 5.21081 56.7916 5.00074 55.935 5.00074C55.0783 5.00074 54.3308 5.21081 53.6924 5.63095C53.054 6.05109 52.5575 6.66766 52.2028 7.48065C51.8536 8.29365 51.679 9.29216 51.679 10.4762C51.679 11.6602 51.8536 12.6587 52.2028 13.4717C52.5575 14.2847 53.054 14.9013 53.6924 15.3214C54.3308 15.7416 55.0783 15.9516 55.935 15.9516C56.7916 15.9516 57.5391 15.7416 58.1775 15.3214C58.8159 14.9013 59.3097 14.2847 59.6589 13.4717C60.0136 12.6587 60.1909 11.6602 60.1909 10.4762Z" fill="white"/>
<path d="M82.5081 18.8571V2.09524H88.6465C89.836 2.09524 90.8208 2.29167 91.6011 2.68452C92.3813 3.07192 92.9652 3.59846 93.3526 4.26414C93.74 4.92436 93.9337 5.66915 93.9337 6.49851C93.9337 7.19692 93.8054 7.78621 93.549 8.26637C93.2925 8.74107 92.9488 9.12302 92.5177 9.4122C92.0921 9.69593 91.6229 9.90327 91.11 10.0342V10.1979C91.6666 10.2252 92.2095 10.4053 92.7387 10.7381C93.2735 11.0655 93.7154 11.532 94.0646 12.1376C94.4138 12.7433 94.5884 13.4799 94.5884 14.3475C94.5884 15.2041 94.3865 15.9735 93.9828 16.6555C93.5845 17.3321 92.9679 17.8695 92.1331 18.2679C91.2982 18.6607 90.2315 18.8571 88.9329 18.8571H82.5081ZM85.0371 16.6882H88.6874C89.8987 16.6882 90.7663 16.4536 91.2901 15.9844C91.8139 15.5151 92.0758 14.9286 92.0758 14.2247C92.0758 13.6954 91.9421 13.2098 91.6747 12.7679C91.4074 12.3259 91.0254 11.974 90.5289 11.7121C90.0378 11.4501 89.454 11.3192 88.7774 11.3192H85.0371V16.6882ZM85.0371 9.34673H88.4255C88.9929 9.34673 89.5031 9.2376 89.956 9.01935C90.4143 8.80109 90.7772 8.49554 91.0445 8.10268C91.3174 7.70437 91.4538 7.23512 91.4538 6.69494C91.4538 6.00198 91.211 5.42088 90.7253 4.95164C90.2397 4.48239 89.4949 4.24777 88.491 4.24777H85.0371V9.34673Z" fill="white"/>
<path d="M101.05 19.1354C100.253 19.1354 99.5332 18.9881 98.8894 18.6935C98.2456 18.3934 97.7354 17.9596 97.3589 17.3921C96.9879 16.8247 96.8023 16.129 96.8023 15.3051C96.8023 14.5957 96.9388 14.0119 97.2116 13.5536C97.4844 13.0952 97.8527 12.7324 98.3165 12.465C98.7803 12.1977 99.2986 11.9958 99.8715 11.8594C100.444 11.723 101.028 11.6193 101.623 11.5484C102.376 11.4611 102.987 11.3901 103.456 11.3356C103.926 11.2755 104.267 11.1801 104.479 11.0491C104.692 10.9182 104.799 10.7054 104.799 10.4107V10.3534C104.799 9.63864 104.597 9.08482 104.193 8.69197C103.795 8.29911 103.2 8.10268 102.409 8.10268C101.585 8.10268 100.936 8.28547 100.461 8.65104C99.9916 9.01116 99.6669 9.4122 99.4869 9.85417L97.187 9.33036C97.4598 8.56647 97.8581 7.9499 98.382 7.48065C98.9112 7.00595 99.5196 6.6622 100.207 6.4494C100.895 6.23115 101.618 6.12202 102.376 6.12202C102.878 6.12202 103.41 6.18204 103.972 6.30208C104.539 6.41667 105.069 6.62946 105.56 6.94048C106.056 7.25149 106.463 7.69618 106.779 8.27455C107.096 8.84747 107.254 9.59226 107.254 10.5089V18.8571H104.864V17.1384H104.766C104.608 17.4549 104.37 17.7659 104.054 18.0714C103.737 18.377 103.331 18.6307 102.834 18.8326C102.338 19.0345 101.743 19.1354 101.05 19.1354ZM101.582 17.1711C102.259 17.1711 102.837 17.0375 103.317 16.7701C103.803 16.5027 104.171 16.1535 104.422 15.7225C104.679 15.286 104.807 14.8194 104.807 14.3229V12.7024C104.72 12.7897 104.55 12.8715 104.299 12.9479C104.054 13.0189 103.773 13.0816 103.456 13.1362C103.14 13.1853 102.832 13.2316 102.532 13.2753C102.231 13.3135 101.98 13.3462 101.779 13.3735C101.304 13.4335 100.87 13.5345 100.477 13.6763C100.09 13.8182 99.7788 14.0228 99.5442 14.2902C99.315 14.5521 99.2004 14.9013 99.2004 15.3378C99.2004 15.9435 99.4241 16.4018 99.8715 16.7128C100.319 17.0184 100.889 17.1711 101.582 17.1711Z" fill="white"/>
<path d="M112.961 11.3929V18.8571H110.513V6.28571H112.862V8.33185H113.018C113.307 7.66617 113.76 7.13145 114.377 6.72768C114.999 6.32391 115.782 6.12202 116.726 6.12202C117.582 6.12202 118.332 6.30208 118.976 6.6622C119.62 7.01687 120.119 7.54613 120.474 8.25C120.829 8.95387 121.006 9.82416 121.006 10.8609V18.8571H118.559V11.1555C118.559 10.2443 118.322 9.53224 117.847 9.01935C117.372 8.50099 116.72 8.24182 115.891 8.24182C115.323 8.24182 114.819 8.36458 114.377 8.61012C113.94 8.85565 113.594 9.21577 113.337 9.69048C113.086 10.1597 112.961 10.7272 112.961 11.3929Z" fill="white"/>
<path d="M126.539 14.593L126.522 11.6057H126.948L131.957 6.28571H134.887L129.174 12.3423H128.79L126.539 14.593ZM124.288 18.8571V2.09524H126.735V18.8571H124.288ZM132.227 18.8571L127.726 12.8824L129.412 11.1719L135.231 18.8571H132.227Z" fill="white"/>
<path d="M72.2856 0H73.857V22H72.2856V0Z" fill="white"/>
</svg>
